<?xml version="1.0" standalone="no"?>
<!DOCTYPE svg PUBLIC "-//W3C//DTD SVG 20010904//EN"
 "http://www.w3.org/TR/2001/REC-SVG-20010904/DTD/svg10.dtd">
<svg version="1.0" xmlns="http://www.w3.org/2000/svg"
 width="316.000000pt" height="88.000000pt" viewBox="0 0 316.000000 88.000000"
 preserveAspectRatio="xMidYMid meet">

<g transform="translate(0.000000,88.000000) scale(0.100000,-0.100000)"
fill="#000000" stroke="none">
<path d="M2490 536 l0 -45 -30 11 c-101 35 -177 -96 -101 -173 22 -22 39 -29
68 -29 22 0 44 5 51 12 9 9 12 9 12 0 0 -7 13 -12 30 -12 l30 0 0 140 0 140
-30 0 c-29 0 -30 -2 -30 -44z m-18 -93 c20 -18 24 -63 6 -81 -7 -7 -24 -12
-38 -12 -33 0 -50 17 -50 51 0 51 46 75 82 42z"/>
<path d="M1017 443 c-31 -71 -57 -132 -57 -136 0 -4 13 -7 29 -7 22 0 31 6 41
30 12 29 15 30 71 30 55 0 59 -2 74 -30 12 -23 22 -30 45 -30 34 0 37 -12 -35
150 -48 106 -54 115 -81 118 -28 3 -31 -1 -87 -125z m123 -34 c0 -11 -67 -12
-73 -1 -2 4 5 27 15 51 l20 44 19 -43 c10 -23 19 -46 19 -51z"/>
<path d="M1280 435 l0 -135 30 0 30 0 0 135 0 135 -30 0 -30 0 0 -135z"/>
<path d="M1611 552 c-50 -25 -74 -63 -74 -115 0 -51 24 -98 63 -121 36 -20
122 -21 161 0 28 14 30 18 27 67 -3 48 -5 52 -30 55 -25 3 -27 0 -30 -40 -3
-41 -4 -43 -39 -46 -51 -4 -89 28 -89 77 0 20 7 46 15 58 22 31 78 40 111 18
25 -16 27 -16 47 3 l20 21 -34 20 c-42 26 -102 27 -148 3z"/>
<path d="M1880 493 c-68 -35 -72 -135 -6 -178 29 -20 118 -17 139 4 19 19 -14
44 -44 33 -32 -12 -73 0 -77 21 -3 15 6 17 74 17 l77 0 -7 33 c-14 70 -89 104
-156 70z m88 -45 c22 -22 13 -28 -38 -28 -48 0 -50 1 -40 20 12 23 59 27 78 8z"/>
<path d="M2177 503 c-4 -3 -27 -5 -52 -5 l-45 2 0 -100 0 -100 30 0 30 0 0 64
c0 65 14 96 45 96 31 0 45 -31 45 -96 l0 -64 31 0 31 0 -4 81 c-3 74 -6 83
-31 105 -27 23 -66 31 -80 17z"/>
<path d="M2628 498 c-16 -5 -28 -13 -28 -16 1 -22 20 -30 65 -29 38 2 50 -2
53 -14 2 -13 -8 -17 -49 -21 -54 -6 -79 -24 -79 -60 0 -45 72 -74 121 -48 13
7 19 7 19 0 0 -15 50 -12 51 3 2 34 -3 134 -7 150 -12 39 -87 57 -146 35z m95
-114 c13 -13 -14 -44 -39 -44 -28 0 -44 28 -23 41 16 10 53 12 62 3z"/>
<path d="M1390 405 c0 -24 3 -25 55 -25 52 0 55 1 55 25 0 24 -3 25 -55 25
-52 0 -55 -1 -55 -25z"/>
</g>
</svg>
